<svg width="59" height="74" viewBox="0 0 59 74" fill="none" xmlns="http://www.w3.org/2000/svg">
<path d="M27.4163 60.0896H31.583V41.3018L40.333 49.7053L43.283 46.8521L29.4997 33.6147L15.7163 46.8521L18.6913 49.6813L27.4163 41.3018V60.0896ZM7.06634 73.0149C5.1469 73.0149 3.54551 72.3987 2.26217 71.1662C0.97884 69.9337 0.335786 68.3957 0.333008 66.5523V7.44789C0.333008 5.60713 0.976063 4.0705 2.26217 2.83799C3.54829 1.60549 5.14968 0.987897 7.06634 0.985229H39.9163L58.6663 18.9927V66.5523C58.6663 68.393 58.0247 69.931 56.7413 71.1662C55.458 72.4013 53.8552 73.0176 51.933 73.0149H7.06634ZM37.833 20.9935H54.4997L37.833 4.98688V20.9935Z" fill="#D9D9D9"/>
</svg>
